<?xml version="1.0" encoding="UTF-8"?>
<svg width="268px" height="119px" viewBox="0 0 268 119" version="1.1" xmlns="http://www.w3.org/2000/svg" xmlns:xlink="http://www.w3.org/1999/xlink">
    <title>rizky</title>
    <g id="Page-1" stroke="none" stroke-width="1" fill="none" fill-rule="evenodd">
        <path d="M7.74117647,89 C12.0541176,89 15.4823529,85.5555556 15.4823529,81.2222222 L15.4823529,52.3333333 C16.92,48.8888889 21.0117647,42.3333333 26.5411765,42.3333333 C28.7529412,42.3333333 29.6376471,43.2222222 30.1905882,44.6666667 C31.5176471,48.1111111 34.6141176,50 38.2635294,50 C43.1294118,50 47,46.1111111 47,41.2222222 C46.7788235,33.7777778 41.1388235,29 33.1764706,29 C26.5411765,29 19.4635294,32.8888889 15.4823529,37.3333333 C15.4823529,33.3333333 12.2752941,30.1111111 8.29411765,30.1111111 C4.31294118,30.1111111 1.10588235,33.3333333 1.10588235,37.3333333 L1.10588235,61.2222222 L0,81.2222222 C0,85.5555556 3.42823529,89 7.74117647,89 Z M56.5,22 C61.7529412,22 66,17.7529412 66,12.5 C66,7.24705882 61.7529412,3 56.5,3 C51.2470588,3 47,7.24705882 47,12.5 C47,17.7529412 51.2470588,22 56.5,22 Z M63.5608977,90 C72.2305408,90 75.8984667,85.6745455 78.0103028,81.7927273 C79.344094,79.2418182 79.4552433,76.9127273 77.5657057,75.36 C75.6761681,73.8072727 73.2308842,73.6963636 71.6747944,75.36 C70.5633017,76.58 69.1183612,77.2454545 67.4511222,77.2454545 C65.339286,77.2454545 63.5608977,75.4709091 63.5608977,73.3636364 C63.5608977,60.0545455 64.6723904,51.7363636 64.6723904,37.3181818 C64.6723904,32.7709091 60.8933153,29 56.3361952,29 C51.7790752,29 48,32.7709091 48,37.3181818 C48,37.3181818 49.1114927,51.7363636 49.1114927,61.1636364 C49.1114927,66.7090909 48.5557463,70.5909091 48.5557463,74.4727273 C48.5557463,83.0127273 55.002404,90 63.5608977,90 Z M97.2587187,119 C121.115828,119 131.018779,104.864897 131.018779,90.8419783 C131.018779,89.159228 130.681178,87.4764777 130.231044,85.9059107 C133.944651,83.3256936 136.757989,79.7358263 138.558525,75.5850422 C139.683861,72.8926417 138.558525,70.761158 136.307855,69.5271411 C134.169718,68.517491 131.919047,69.1905911 130.568645,71.0977081 C128.430507,74.238842 126.629971,76.2581423 124.829434,77.4921592 C120.328093,73.2291918 113.351014,70.3124246 105.923801,69.0784077 C118.077422,64.4788902 127.305172,52.3630881 127.305172,35.3112183 C127.305172,31.384801 124.491834,28.5802171 120.55316,28.5802171 C116.72702,28.5802171 115.489151,30.7117008 114.476349,32.5066345 C110.650209,39.5741858 98.9467217,40.6960193 90.5067067,40.6960193 C88.8187037,40.6960193 86.7931001,40.5838359 84.88003,40.2472859 C84.88003,31.9457177 82.7418929,26 76.440015,26 C70.0256036,26 68,29.5898673 68,36.4330519 C68,45.5199035 72.8389419,54.3823884 89.3813714,54.3823884 C96.9211181,54.3823884 103.785664,52.5874548 110.200075,48.6610374 C106.824069,56.9626055 101.309926,62.1230398 90.0565726,65.8250905 C87.6933684,66.6103739 86.0053654,68.6296743 86.0053654,71.2098914 C86.0053654,74.3510253 88.4811031,76.8190591 91.632042,76.8190591 C100.072057,76.8190591 106.261401,78.6139928 110.087542,82.2038601 L108.737139,82.5404101 C91.632042,86.9155609 74.1893443,88.0373945 74.1893443,102.060314 C74.1893443,111.034982 79.2533533,119 97.2587187,119 Z M96.7777778,107 C90.8888889,107 89,103.93617 89,101.326241 C89,95.6524823 95.7777778,94.6312057 108.444444,92.1347518 L113.777778,91 C113.888889,91.9078014 114,92.929078 114,93.9503546 C114,101.893617 106.777778,107 96.7777778,107 Z M182.605679,90 C192.415341,90 200.107008,84 203.562684,75.7777778 C204.677419,73.1111111 203.562684,71 201.333216,69.7777778 C199.21522,68.7777778 196.985752,69.4444444 195.64807,71.3333333 C192.638288,75.5555556 189.962925,77.2222222 186.507249,77.2222222 C183.163046,77.2222222 182.048311,75.3333333 182.048311,72.2222222 C182.048311,68.8888889 182.605679,67.7777778 182.605679,64.4444444 C182.605679,61 181.156524,56.7777778 175.248432,55.2222222 C179.930316,52.4444444 184.27778,48.2222222 184.27778,41.6666667 C184.27778,33.7777778 179.818843,28.8888889 169.786234,28.8888889 C160.088045,28.8888889 153.176692,33.5555556 148.606281,39.5555556 C148.940701,25.3333333 149.721015,16.3333333 149.721015,8.33333333 C149.721015,3.77777778 145.930918,0 141.360508,0 C136.790097,0 133,3.77777778 133,8.33333333 C133,17.7777778 134.114734,28.8888889 134.114734,61.1111111 C134.114734,66.6666667 133,75.5555556 133,81.1111111 C133,85.4444444 136.455676,88.8888889 140.80314,88.8888889 C145.150604,88.8888889 148.606281,85.4444444 148.606281,81.1111111 L148.606281,70.2222222 C153.622585,69.2222222 157.747103,66.1111111 161.425726,66.1111111 C164.212562,66.1111111 165.884663,67.2222222 165.884663,70.5555556 C165.884663,72.7777778 165.550243,73.3333333 165.550243,75.5555556 C165.550243,81.7777778 170.343601,90 182.605679,90 Z M148,59 L148,58.4339623 C148,53.4528302 152.470588,41 162.529412,41 C165.770588,41 167,42.6981132 167,44.9622642 C167,52.3207547 156.941176,57.9811321 148,59 Z M226.517883,119 C250.226867,119 254.476591,103.79397 254.476591,90.9359296 C254.476591,90.1532663 254.476591,89.370603 254.364756,88.6997487 C260.403837,86.4635678 265.1009,81.6557789 267.561267,75.7298995 C268.679615,73.0464824 267.561267,70.9221106 265.32457,69.6922111 C263.199708,68.6859296 260.963011,69.3567839 259.620993,71.2575377 C257.048792,74.9472362 255.035765,77.071608 253.022738,78.1896985 C252.351729,73.9409548 251.792555,69.0213568 251.68072,63.3190955 L251.68072,61.3065327 C251.68072,51.8027638 252.799068,44.5351759 252.799068,38.3856784 C252.799068,33.8015075 248.996684,30 244.411456,30 C239.826228,30 236.023843,33.8015075 236.023843,38.3856784 C236.023843,44.5351759 237.142192,51.8027638 237.142192,58.5113065 C237.142192,64.1017588 232.780633,70.2512563 222.603663,70.2512563 C215.893573,70.2512563 213.656877,65.7788945 213.656877,60.1884422 C213.656877,53.4798995 214.775225,44.5351759 214.775225,38.3856784 C214.775225,33.8015075 210.972841,30 206.387613,30 C201.802384,30 198,33.8015075 198,38.3856784 C198,44.5351759 199.118348,51.8027638 199.118348,61.3065327 C199.118348,73.6055276 205.269264,83.1092965 218.689444,83.1092965 C227.971735,83.1092965 235.129165,79.9786432 238.03687,76.4007538 L238.596045,82.5502513 C221.59715,86.910804 203.591742,87.9170854 203.591742,102.116834 C203.591742,111.061558 208.624309,119 226.517883,119 Z M226.941563,107 C220.928665,107 219,103.954887 219,101.360902 C219,95.4962406 227.055014,94.481203 239.874966,92 C239.874966,92.6766917 239.988417,93.3533835 239.988417,94.0300752 C240.215319,100.796992 237.152145,107 226.941563,107 Z" id="rizky" fill="#EE6122" fill-rule="nonzero"></path>
    </g>
</svg>